<svg xmlns="http://www.w3.org/2000/svg" xmlns:xlink="http://www.w3.org/1999/xlink" viewBox="0 0 263.57 279.2">
  <defs>
    <style>
      .cls-1 {
        isolation: isolate;
      }

      .cls-2 {
        mix-blend-mode: multiply;
        opacity: 0.3;
        fill: url(#Degradado_sin_nombre_24);
      }

      .cls-3 {
        font-size: 112.76px;
      }

      .cls-10,
      .cls-11,
      .cls-12,
      .cls-13,
      .cls-3,
      .cls-4,
      .cls-5,
      .cls-8 {
        fill: #048ed6;
      }

      .cls-3,
      .cls-4,
      .cls-5 {
        font-family: Starborn;
      }

      .cls-4 {
        font-size: 106.02px;
      }

      .cls-5 {
        font-size: 99.44px;
      }

      .cls-6,
      .cls-9 {
        fill: #003159;
      }

      .cls-7 {
        fill: #fff;
      }

      .cls-9 {
        font-size: 46px;
        font-family: Montserrat-ExtraBold, Montserrat;
        font-weight: 800;
        letter-spacing: 0em;
      }

      .cls-10 {
        letter-spacing: 0em;
      }

      .cls-11 {
        letter-spacing: -0.01em;
      }

      .cls-12 {
        letter-spacing: 0em;
      }

      .cls-13 {
        letter-spacing: 0em;
      }
    </style>
    <radialGradient id="Degradado_sin_nombre_24" cx="138.81" cy="280.33" r="88.33"
      gradientTransform="translate(0 196.42) scale(1 0.09)" gradientUnits="userSpaceOnUse">
      <stop offset="0" stop-color="#606060" />
      <stop offset="1" stop-color="#eaedee" stop-opacity="0" />
    </radialGradient>
  </defs>
  <g class="cls-1">
    <g id="Camada_2" data-name="Camada 2">
      <g id="OBJECTS">
        <ellipse class="cls-2" cx="138.81" cy="221.56" rx="124.76" ry="10.99" /><text class="cls-3"
          transform="translate(52.1 115.93)">E</text><text class="cls-4"
          transform="matrix(0.99, -0.14, 0.14, 0.99, 127.37, 106.53)">A</text><text class="cls-5"
          transform="translate(100.37 162.06) rotate(9.18)">N</text>
        <path class="cls-6"
          d="M229.87,88.27l-1.32-13.91A11.61,11.61,0,0,0,217,63.86a10.61,10.61,0,0,0-1.12,0,11.6,11.6,0,0,0-10.45,12.66l1.33,13.91c.19,2,.27,4,.29,5.93a71.42,71.42,0,0,1-64.62,71.93q-3.44.33-6.82.33a70.79,70.79,0,0,1-25.7-4.82,71.79,71.79,0,0,1-20.83-12.54l-2,5.65a12.26,12.26,0,0,1-23,.41L60,146.67,52.9,143.1a95.28,95.28,0,0,0,38.28,37.61,22.35,22.35,0,0,1,11.35-4.42c.72-.07,1.44-.1,2.15-.1h0a22.31,22.31,0,0,1,21.21,15.18,94.49,94.49,0,0,0,9.71.51q4.49,0,9.05-.43a94.29,94.29,0,0,0,20.73-4.37,22.36,22.36,0,0,1,20-18.68c.71-.07,1.43-.11,2.14-.11h0a22.54,22.54,0,0,1,8.59,1.71A94.57,94.57,0,0,0,229.87,88.27Z" />
        <path class="cls-7"
          d="M104.65,221.33a22.7,22.7,0,0,1-2.14-45.3c.72-.07,1.45-.11,2.17-.11a22.8,22.8,0,0,1,18.24,9.22,22.56,22.56,0,0,1,3.42,6.76,22.31,22.31,0,0,1,.92,4.57c0,.52.07,1,.08,1.54a22.78,22.78,0,0,1-20.52,23.22C106.09,221.3,105.36,221.33,104.65,221.33Z" />
        <path class="cls-6"
          d="M118.7,194.27a14.71,14.71,0,0,0-14-10.35c-.47,0-.94,0-1.41.07a14.88,14.88,0,0,0-3.49.78,14.7,14.7,0,0,0,4.87,28.56q.69,0,1.41-.06a14.7,14.7,0,0,0,13.29-15c0-.35,0-.7,0-1.06A15.08,15.08,0,0,0,118.7,194.27Z" />
        <path class="cls-7"
          d="M187.49,213.44A22.73,22.73,0,0,1,165,193.61c0-.2-.07-.46-.09-.72a22.88,22.88,0,0,1,2.94-13.49,22.77,22.77,0,0,1,17.5-11.27c.73-.07,1.46-.1,2.17-.1.28,0,.54,0,.81,0a22.33,22.33,0,0,1,8,1.76,22.7,22.7,0,0,1-6.65,43.52C188.93,213.41,188.21,213.44,187.49,213.44Z" />
        <path class="cls-6"
          d="M196.79,179.35a14.84,14.84,0,0,0-3.59-2.16,14.53,14.53,0,0,0-5.18-1.14l-.5,0a13.58,13.58,0,0,0-1.41.07,14.67,14.67,0,0,0-11.33,7.3,14.39,14.39,0,0,0-1.78,5,14.71,14.71,0,0,0-.13,3.7c0,.16,0,.31.07.47a14.69,14.69,0,0,0,14.55,12.84,13.31,13.31,0,0,0,1.41-.07,14.69,14.69,0,0,0,7.89-26Z" />
        <path class="cls-6"
          d="M64.57,104,62,77.18A25.23,25.23,0,0,0,37,54.38c-.79,0-1.6,0-2.41.11l-24,2.29a11.61,11.61,0,0,0,1.08,23.16c.37,0,.74,0,1.12,0l24-2.29h.18a2,2,0,0,1,2,1.79l2.56,26.85A94.39,94.39,0,0,0,44,120.74a12.29,12.29,0,0,1,5.17-3.15l16.71-5.16A74.41,74.41,0,0,1,64.57,104Z" />
        <path class="cls-7"
          d="M75.55,165.19a12.17,12.17,0,0,1-11.42-7.82L60,146.67l-12.71-6.43a12.26,12.26,0,0,1,1.92-22.65l34.72-10.72a12.18,12.18,0,0,1,13.62,4.62,12.12,12.12,0,0,1,1.57,11.12L87.13,157A12.12,12.12,0,0,1,75.55,165.19Z" />
        <path class="cls-8"
          d="M87.53,113.31a5.14,5.14,0,0,0-1.57.25L51.23,124.28a5.25,5.25,0,0,0-.82,9.71l13.31,6.74a5.25,5.25,0,0,1,2.53,2.78l4.4,11.33a5.25,5.25,0,0,0,9.86-.18l12-34.35A5.27,5.27,0,0,0,87.53,113.31Z" />
      </g>
      <g id="TEXTS"><text class="cls-9" transform="translate(21.46 267.29)">EAN<tspan class="cls-10" x="104.42" y="0">S
          </tspan>
          <tspan class="cls-11" x="134.27" y="0">t</tspan>
          <tspan class="cls-12" x="154.19" y="0">o</tspan>
          <tspan class="cls-13" x="184.92" y="0">r</tspan>
          <tspan class="cls-8" x="205.07" y="0">e</tspan>
        </text></g>
    </g>
  </g>
</svg>