<?xml version="1.0" encoding="UTF-8"?>
<svg viewBox="0 0 263.57 245.11" xmlns="http://www.w3.org/2000/svg">
<defs>
<style>.cls-1 {
        isolation: isolate;
      }

      .cls-2 {
        mix-blend-mode: multiply;
        opacity: 0.3;
        fill: url(#a);
      }

      .cls-3 {
        fill: #048ed6;
      }

      .cls-4 {
        fill: #003159;
      }

      .cls-5 {
        fill: #fff;
      }</style>
<radialGradient id="a" cx="138.81" cy="257.51" r="88.33" gradientTransform="translate(0 175.65) scale(1 .09)" gradientUnits="userSpaceOnUse">
<stop stop-color="#606060" offset="0"/>
<stop stop-color="#eaedee" stop-opacity="0" offset="1"/>
</radialGradient>
</defs>
<g class="cls-1">
<g data-name="Camada 2">
<ellipse class="cls-2" cx="138.81" cy="198.75" rx="124.76" ry="10.99"/>
<path class="cls-3" d="M131.39,19.22a16,16,0,0,1,2,7.1q0,4.8-4.46,8a15.36,15.36,0,0,1-9,3.31,12.13,12.13,0,0,1-5.45-1.33,20.64,20.64,0,0,0-9.2-2,32,32,0,0,0-7.38.93q-9.63,2.37-9.63,5.84c0,.77,1.14,1.16,3.41,1.16a36.4,36.4,0,0,0,4.74-.39c1.13-.11,2.2-.16,3.19-.16q5.77,0,9,2.91t3.3,8.92a23.47,23.47,0,0,1-.16,2.7q-.89,7.94-11.18,11.62-16.85,3.85-16.85,7.27c.15.84.57,1.26,1.27,1.26h1.32q17.34,0,38.54-14.09a17.14,17.14,0,0,1,3.25-.33q9.26,0,11.18,12.61a20.45,20.45,0,0,1,.22,2.86q0,12.61-18.72,18.94a105.56,105.56,0,0,1-33.86,6c-2,0-3.95-.08-5.89-.22Q62,100.82,55.52,82.82a41.5,41.5,0,0,1-.66-7.71q0-9.58,8.37-18.61a30.24,30.24,0,0,1-4.52-16.08q0-17.73,18.72-26Q93,7.61,106.06,7.6a50.31,50.31,0,0,1,5.23.28Q126.38,9.59,131.39,19.22Z"/>
<path class="cls-3" d="M160.62.74l4.15-.6q16.9-2.47,39.95,39.32,7.93,16.68,9.22,25.49l.09.61q1.33,9.12-10.42,12.51-8,1.17-13.59-9.63L188.75,68l-9.58,1.4q-27.3,5.44-26.9,8.22c-.22,5.15-2.75,8.58-7.6,10.26l-4.82.7q-7.69-.39-10.27-7.65l-.69-4.76Q128,70,141.71,26.05,150.11,2.27,160.62.74Zm-5.21,49.63a158.74,158.74,0,0,1,21.21-4.51c1.4-.2,2.84-.4,4.31-.58Q176.12,34.84,165,26A139.89,139.89,0,0,0,155.41,50.37Z"/>
<path class="cls-3" d="M177.33,71.46q8.49,4.13,7.78,24A264.76,264.76,0,0,1,182,127.31c-.29,1.75-.58,3.49-.9,5.21q-3.21,17.19-15.8,17.76-10.7-1.72-21.17-21.77-12.06-19.75-12.87-19.88l-.53-.09L130,109.6l-4.07,25.16q-1.12,7-9.44,8.81l-5.61-.91q-8-4-6.76-11.42l4.53-28Q112.4,80,119.87,76.38a12.92,12.92,0,0,1,7.74-1.6l2.25.37q10.74,1.72,27.91,34a4,4,0,0,0,1.59.8l.71-1q-.3-15.2,1.11-23.92,1.74-10.74,6.07-11.71Q170.1,70.29,177.33,71.46Z"/>
<path class="cls-4" d="M229.87,65.46l-1.32-13.91A11.61,11.61,0,0,0,217,41c-.37,0-.74,0-1.12.05a11.61,11.61,0,0,0-10.45,12.66l1.33,13.91c.19,2,.27,4,.29,5.93a71.42,71.42,0,0,1-64.62,71.94c-2.29.22-4.56.32-6.82.32a70.79,70.79,0,0,1-25.7-4.82A71.76,71.76,0,0,1,89.09,128.5l-2,5.64a12.26,12.26,0,0,1-23,.42L60,123.86l-7.06-3.58a95.28,95.28,0,0,0,38.28,37.61,22.35,22.35,0,0,1,11.35-4.42c.72-.07,1.44-.1,2.15-.1h0a22.31,22.31,0,0,1,21.21,15.18,94.48,94.48,0,0,0,9.71.52c3,0,6-.15,9.05-.43a94.88,94.88,0,0,0,20.73-4.38,22.39,22.39,0,0,1,20-18.68c.71-.07,1.43-.1,2.14-.1h0a22.53,22.53,0,0,1,8.59,1.7A94.55,94.55,0,0,0,229.87,65.46Z"/>
<path class="cls-5" d="m104.65 198.52a22.71 22.71 0 0 1-2.14-45.31c0.72-0.07 1.45-0.1 2.17-0.1a22.77 22.77 0 0 1 18.24 9.22 22.68 22.68 0 0 1 4.34 11.33c0 0.51 0.07 1 0.08 1.53a22.78 22.78 0 0 1-20.52 23.22c-0.73 0.07-1.46 0.11-2.17 0.11z"/>
<path class="cls-4" d="m118.7 171.45a14.69 14.69 0 0 0-14-10.34q-0.71 0-1.41 0.06a14.89 14.89 0 0 0-3.49 0.79 14.65 14.65 0 0 0-4.3 2.37 15.11 15.11 0 0 0-2.79 3 14.7 14.7 0 0 0 12 23.22c0.46 0 0.93 0 1.41-0.07a14.7 14.7 0 0 0 13.29-15v-1.05a15.18 15.18 0 0 0-0.71-2.98z"/>
<path class="cls-5" d="m187.49 190.62a22.73 22.73 0 0 1-22.49-19.83c0-0.2-0.07-0.46-0.09-0.72a22.91 22.91 0 0 1 2.94-13.49 22.74 22.74 0 0 1 17.5-11.26c0.73-0.07 1.46-0.11 2.17-0.11h0.81a22.7 22.7 0 0 1 1.33 45.28c-0.73 0.1-1.45 0.13-2.17 0.13z"/>
<path class="cls-4" d="M196.79,156.54a14.5,14.5,0,0,0-8.77-3.3c-.17,0-.33,0-.5,0-.46,0-.93,0-1.41.07a14.67,14.67,0,0,0-11.33,7.3,14.46,14.46,0,0,0-1.78,5,14.71,14.71,0,0,0-.13,3.7c0,.16,0,.31.07.47a14.69,14.69,0,0,0,14.55,12.84q.7,0,1.41-.06a14.69,14.69,0,0,0,7.89-26Z"/>
<path class="cls-4" d="M64.57,81.21,62,54.36A25.23,25.23,0,0,0,37,31.56c-.79,0-1.6,0-2.41.11L10.51,34a11.61,11.61,0,0,0,1.08,23.16,10.61,10.61,0,0,0,1.12,0l24-2.29h.18a2,2,0,0,1,2,1.79l2.56,26.85A94.73,94.73,0,0,0,44,97.93a12.21,12.21,0,0,1,5.17-3.16l16.71-5.16A74.24,74.24,0,0,1,64.57,81.21Z"/>
<path class="cls-5" d="m75.55 142.37a12.18 12.18 0 0 1-11.42-7.81l-4.13-10.7-12.71-6.44a12.26 12.26 0 0 1 1.92-22.65l34.68-10.72a12.23 12.23 0 0 1 13.62 4.63 12.09 12.09 0 0 1 1.57 11.11l-12 34.35a12.12 12.12 0 0 1-11.53 8.23z"/>
<path class="cls-3" d="M87.53,90.5a5.12,5.12,0,0,0-1.57.24L51.23,101.46a5.25,5.25,0,0,0-.82,9.71l13.31,6.74a5.27,5.27,0,0,1,2.53,2.79L70.65,132a5.25,5.25,0,0,0,9.86-.18l12-34.35A5.26,5.26,0,0,0,87.53,90.5Z"/>
<path class="cls-4" d="M33.7,237.43H50.54v7H24.68v-32.2H49.94v7H33.7Zm-.64-12.69H48v6.8H33.06Z"/>
<path class="cls-4" d="M51.82,244.47,66,212.27h9l14.26,32.2H79.79L68.66,216.73h3.59L61.12,244.47Zm7.78-6.26,2.34-6.71H77.68L80,238.21Z"/>
<path class="cls-4" d="M91.94,244.47v-32.2h7.49l17.76,21.44h-3.54V212.27h8.92v32.2h-7.5L97.32,223h3.54v21.44Z"/>
<path class="cls-3" d="M140.42,245.11a28.93,28.93,0,0,1-7.61-1,19.56,19.56,0,0,1-6-2.55l3-6.71a20.65,20.65,0,0,0,5,2.27,18.51,18.51,0,0,0,5.64.9,10.45,10.45,0,0,0,3-.35,3.51,3.51,0,0,0,1.68-.92,1.93,1.93,0,0,0,.53-1.35,2,2,0,0,0-1-1.75,9.33,9.33,0,0,0-2.62-1.06c-1.08-.27-2.27-.55-3.57-.83a35.38,35.38,0,0,1-3.91-1.05A15.83,15.83,0,0,1,131,229a8.32,8.32,0,0,1-2.62-2.72,8.15,8.15,0,0,1-1-4.25,9.17,9.17,0,0,1,1.59-5.25,11,11,0,0,1,4.76-3.77,19.33,19.33,0,0,1,7.91-1.42,27.06,27.06,0,0,1,6.23.71,19.62,19.62,0,0,1,5.45,2.09l-2.8,6.76a22.73,22.73,0,0,0-4.55-1.86,16.63,16.63,0,0,0-4.37-.62,9.72,9.72,0,0,0-3,.39,3.47,3.47,0,0,0-1.66,1,2.35,2.35,0,0,0-.5,1.47,1.91,1.91,0,0,0,1,1.68,8.9,8.9,0,0,0,2.62,1c1.09.26,2.28.53,3.59.8s2.6.62,3.91,1a14.69,14.69,0,0,1,3.56,1.65,8.06,8.06,0,0,1,2.6,2.72,8.17,8.17,0,0,1,1,4.21,9.08,9.08,0,0,1-1.59,5.17,11,11,0,0,1-4.74,3.8A19.27,19.27,0,0,1,140.42,245.11Z"/>
<path class="cls-3" d="M155.92,227v-6.53H174V227Zm13.76,17.89q-4.78,0-7.46-2.37c-1.78-1.57-2.66-4-2.66-7.15V214h8.73v21.3a2.87,2.87,0,0,0,.74,2.09,2.5,2.5,0,0,0,1.89.76,4.47,4.47,0,0,0,2.66-.78l2.17,6.12a7.82,7.82,0,0,1-2.72,1.08A15.93,15.93,0,0,1,169.68,244.88Z"/>
<path class="cls-3" d="M191,244.88a15.55,15.55,0,0,1-7.27-1.65,12.76,12.76,0,0,1-5-4.58A12.42,12.42,0,0,1,176.9,232a12.28,12.28,0,0,1,1.81-6.67,12.64,12.64,0,0,1,5-4.53,17,17,0,0,1,14.56,0,12.13,12.13,0,0,1,6.79,11.2,12.5,12.5,0,0,1-1.8,6.69,12.36,12.36,0,0,1-5,4.58A15.66,15.66,0,0,1,191,244.88Zm0-6.94a5.18,5.18,0,0,0,2.69-.69,4.79,4.79,0,0,0,1.87-2.05,7,7,0,0,0,.69-3.24,6.79,6.79,0,0,0-.69-3.2,4.89,4.89,0,0,0-1.87-2,5.18,5.18,0,0,0-2.69-.69,5,5,0,0,0-4.53,2.69,6.67,6.67,0,0,0-.71,3.2,6.92,6.92,0,0,0,.71,3.24,5,5,0,0,0,1.89,2.05A5.1,5.1,0,0,0,191,237.94Z"/>
<path class="cls-3" d="M209.19,244.47V219.54h8.32v7.27l-1.24-2.07a8,8,0,0,1,3.59-4.21,12,12,0,0,1,6-1.41V227c-.4-.06-.75-.1-1-.12l-.94,0a6.33,6.33,0,0,0-4.33,1.45q-1.65,1.45-1.65,4.72v11.45Z"/>
<path class="cls-3" d="m242.4 244.88a16.83 16.83 0 0 1-7.7-1.67 12.58 12.58 0 0 1-5.11-4.61 12.3 12.3 0 0 1-1.82-6.64 12.57 12.57 0 0 1 1.77-6.65 12.23 12.23 0 0 1 4.9-4.55 15.87 15.87 0 0 1 13.76-0.14 11.69 11.69 0 0 1 4.8 4.38 13.17 13.17 0 0 1 1.79 7v1.06s-0.06 0.76-0.09 1.1h-19.7v-4.6h15l-3.32 1.29a5.73 5.73 0 0 0-0.62-2.94 4.85 4.85 0 0 0-1.84-1.94 5.77 5.77 0 0 0-5.47 0 4.73 4.73 0 0 0-1.82 2 6.44 6.44 0 0 0-0.64 3v1.33a6.25 6.25 0 0 0 0.76 3.17 5 5 0 0 0 2.18 2.05 7.49 7.49 0 0 0 3.41 0.71 8.31 8.31 0 0 0 3.15-0.53 9.39 9.39 0 0 0 2.6-1.63l4.6 4.79a11.75 11.75 0 0 1-4.42 3 16.9 16.9 0 0 1-6.17 1.02z"/>
</g>
</g>
</svg>
